<svg width="12" height="12" viewBox="0 0 12 12" fill="none" xmlns="http://www.w3.org/2000/svg">
<path d="M7.08 0.119609C5.28 -0.240391 3.48 0.239609 2.16 1.43961C0.72 2.51961 0 4.19961 0 5.99961C0 9.35961 2.64 11.9996 6 11.9996C6.36 11.9996 6.72 11.6396 6.72 11.2796C6.72 10.9196 6.48 10.5596 6 10.5596C3.48 10.5596 1.56 8.51961 1.56 5.99961C1.56 4.67961 2.16 3.35961 3.12 2.51961C4.2 1.67961 5.52 1.31961 6.84 1.55961C9 1.91961 10.68 4.07961 10.56 6.47961C10.56 6.71961 10.56 6.95961 10.44 7.07961C10.32 7.67961 9.84 7.67961 9.72 7.67961C9.6 7.67961 9 7.55961 9 6.95961V3.71961C9 3.35961 8.64 2.99961 8.28 2.99961C7.92 2.99961 7.68 3.23961 7.56 3.47961C7.08 3.11961 6.6 2.99961 6 2.99961C4.32 2.99961 3 4.31961 3 5.99961C3 7.67961 4.32 8.99961 6 8.99961C6.72 8.99961 7.44 8.75961 7.92 8.27961C8.28 8.75961 9 9.11961 9.6 9.11961C10.56 9.23961 11.76 8.63961 12 7.31961C12 7.07961 12 6.83961 12 6.59961C12.12 3.35961 10.08 0.599609 7.08 0.119609ZM6 7.55961C5.16 7.55961 4.56 6.83961 4.56 5.99961C4.56 5.15961 5.28 4.43961 6.12 4.43961C6.96 4.43961 7.68 5.15961 7.68 5.99961C7.56 6.83961 6.84 7.55961 6 7.55961Z" fill="#ADADAD"/>
</svg>
