<svg width="32" height="32" viewBox="0 0 32 32" fill="none" xmlns="http://www.w3.org/2000/svg">
<path d="M3.6129 0.5H28.3871C30.1063 0.5 31.5 1.89369 31.5 3.6129V28.3871C31.5 30.1063 30.1063 31.5 28.3871 31.5H3.6129C1.89369 31.5 0.5 30.1063 0.5 28.3871V3.6129C0.5 1.89369 1.89369 0.5 3.6129 0.5Z" stroke="#E8E8E8" stroke-miterlimit="10"/>
<path d="M16.6549 22.9993V15.9989H18.7258L19 13.5862H16.6549V12.3785C16.6549 11.749 16.7192 11.4119 17.6876 11.4119H18.9859V9H16.9143C14.4289 9 13.5506 10.1698 13.5506 12.1386V13.587H12V15.9996H13.5506V23L16.6549 22.9993Z" fill="#ADADAD"/>
</svg>
