<svg width="32" height="32" viewBox="0 0 32 32" fill="none" xmlns="http://www.w3.org/2000/svg">
<path d="M3.6129 0.5H28.3871C30.1063 0.5 31.5 1.89369 31.5 3.6129V28.3871C31.5 30.1063 30.1063 31.5 28.3871 31.5H3.6129C1.89369 31.5 0.5 30.1063 0.5 28.3871V3.6129C0.5 1.89369 1.89369 0.5 3.6129 0.5Z" stroke="#E8E8E8" stroke-miterlimit="10"/>
<path d="M18.3498 23.6439L16.0002 21.3762L13.6552 23.6439C13.4161 23.8712 13.0988 23.998 12.769 23.998C12.4391 23.998 12.1218 23.8712 11.8828 23.6439C11.7671 23.5336 11.6751 23.4009 11.6122 23.254C11.5493 23.1071 11.5169 22.9489 11.5169 22.7891C11.5169 22.6293 11.5493 22.4711 11.6122 22.3242C11.6751 22.1772 11.7671 22.0446 11.8828 21.9342L14.2741 19.6265C13.3961 19.4351 12.5556 19.1004 11.7864 18.6357C11.6477 18.5549 11.527 18.4467 11.4315 18.3177C11.336 18.1887 11.2678 18.0416 11.2311 17.8853C11.1943 17.7291 11.1898 17.567 11.2178 17.4089C11.2457 17.2509 11.3056 17.1002 11.3938 16.966C11.5771 16.6923 11.8591 16.5 12.1809 16.4292C12.5027 16.3584 12.8394 16.4146 13.1207 16.5861C13.9904 17.108 14.9855 17.3836 15.9997 17.3836C17.014 17.3836 18.0091 17.108 18.8788 16.5861C19.1602 16.4148 19.4968 16.3587 19.8185 16.4295C20.1402 16.5003 20.4222 16.6925 20.6057 16.966C20.6939 17.1001 20.7538 17.2508 20.7819 17.4088C20.8099 17.5668 20.8054 17.7289 20.7688 17.8851C20.7321 18.0413 20.664 18.1885 20.5687 18.3175C20.4733 18.4466 20.3526 18.5549 20.214 18.6357C19.4465 19.101 18.6075 19.4364 17.7308 19.6283L20.1213 21.9361C20.2369 22.0464 20.3289 22.179 20.3918 22.326C20.4547 22.4729 20.4871 22.6311 20.4871 22.7909C20.4871 22.9507 20.4547 23.1089 20.3918 23.2558C20.3289 23.4028 20.2369 23.5354 20.1213 23.6458C19.8826 23.8731 19.5656 24 19.236 24C18.9063 24 18.5893 23.8731 18.3507 23.6458L18.3498 23.6439ZM11.7128 12.1296C11.7341 11.0156 12.1962 9.95547 12.9978 9.1816C13.7994 8.40773 14.8752 7.98328 15.9893 8.00128C17.1026 7.98449 18.1772 8.40948 18.9778 9.18322C19.7785 9.95696 20.24 11.0164 20.2613 12.1296C20.24 13.2428 19.7785 14.3021 18.9778 15.0757C18.1771 15.8493 17.1025 16.2741 15.9893 16.2571C14.8754 16.2751 13.7997 15.8508 12.9981 15.0771C12.1965 14.3034 11.7343 13.2435 11.7128 12.1296ZM14.2187 12.1296C14.2275 12.5908 14.4189 13.0297 14.7508 13.35C15.0827 13.6703 15.5281 13.846 15.9893 13.8384C16.4506 13.8462 16.8961 13.6706 17.228 13.3503C17.56 13.0299 17.7513 12.5909 17.7599 12.1296C17.7513 11.6684 17.56 11.2294 17.228 10.909C16.8961 10.5886 16.4506 10.4131 15.9893 10.4208C15.5281 10.4133 15.0827 10.5889 14.7508 10.9093C14.4189 11.2296 14.2275 11.6684 14.2187 12.1296Z" fill="#ADADAD"/>
</svg>
