<svg width="12" height="12" viewBox="0 0 12 12" fill="none" xmlns="http://www.w3.org/2000/svg">
<path d="M11.3996 8.64L10.0796 7.8C9.59955 7.44 8.87955 7.56 8.39955 8.04C8.15955 8.16 7.91955 8.4 7.67955 8.64C7.31955 8.88 6.95955 8.88 6.59955 8.76C6.11955 8.4 5.39955 8.04 4.79955 7.32C4.07955 6.6 3.59955 6 3.23955 5.4C3.11955 5.16 3.11955 4.68 3.35955 4.44C3.59955 4.08 3.83955 3.84 3.95955 3.6C4.43955 3.12 4.43955 2.4 4.19955 1.92L3.35955 0.6C3.11955 0.24 2.75955 0 2.27955 0C1.79955 0 1.31955 0.24 1.07955 0.72C0.599552 1.32 0.119552 2.28 -0.000448107 3.36C-0.240448 6.24 2.63955 9.12 2.75955 9.24C2.87955 9.36 5.51955 12 8.27955 12C8.39955 12 8.51955 12 8.63955 12C9.71955 11.88 10.6796 11.4 11.2796 10.92C11.7596 10.68 11.9996 10.2 11.9996 9.72C11.9996 9.24 11.7596 8.88 11.3996 8.64Z" fill="#ADADAD"/>
</svg>
