<svg width="12" height="12" viewBox="0 0 12 12" fill="none" xmlns="http://www.w3.org/2000/svg">
<path d="M11.775 10.725L8.775 7.725C9.375 6.975 9.75 5.925 9.75 4.875C9.75 2.175 7.575 0 4.875 0C2.175 0 0 2.175 0 4.875C0 7.575 2.175 9.75 4.875 9.75C5.925 9.75 6.975 9.375 7.725 8.775L10.725 11.775C10.875 11.925 11.1 12 11.25 12C11.4 12 11.625 11.925 11.775 11.775C12.075 11.475 12.075 11.025 11.775 10.725ZM4.875 8.25C3 8.25 1.5 6.75 1.5 4.875C1.5 3 3 1.5 4.875 1.5C6.75 1.5 8.25 3 8.25 4.875C8.25 6.75 6.75 8.25 4.875 8.25Z" fill="#ADADAD"/>
</svg>
