<svg width="32" height="32" viewBox="0 0 32 32" fill="none" xmlns="http://www.w3.org/2000/svg">
<path d="M3.6129 0.5H28.3871C30.1063 0.5 31.5 1.89369 31.5 3.6129V28.3871C31.5 30.1063 30.1063 31.5 28.3871 31.5H3.6129C1.89369 31.5 0.5 30.1063 0.5 28.3871V3.6129C0.5 1.89369 1.89369 0.5 3.6129 0.5Z" stroke="#E8E8E8" stroke-miterlimit="10"/>
<path d="M14.2787 17.569L14.0139 21.1984C14.1563 21.1996 14.297 21.1688 14.4252 21.1083C14.5534 21.0479 14.6655 20.9594 14.7529 20.8498L16.5282 19.1945L20.2069 21.821C20.8818 22.1873 21.3541 21.9943 21.5386 21.2161L23.9544 10.1854C24.1686 9.21331 23.594 8.83304 22.9363 9.06698L8.74345 14.3684C7.77502 14.7347 7.78745 15.2613 8.57902 15.4999L12.2118 16.6006L20.6409 11.4586C21.0377 11.2023 21.3981 11.3439 21.1017 11.6003L14.2787 17.569Z" fill="#ADADAD"/>
</svg>
