<svg width="32" height="32" viewBox="0 0 32 32" fill="none" xmlns="http://www.w3.org/2000/svg">
<path d="M3.6129 0.5H28.3871C30.1063 0.5 31.5 1.89369 31.5 3.6129V28.3871C31.5 30.1063 30.1063 31.5 28.3871 31.5H3.6129C1.89369 31.5 0.5 30.1063 0.5 28.3871V3.6129C0.5 1.89369 1.89369 0.5 3.6129 0.5Z" stroke="#E8E8E8" stroke-miterlimit="10"/>
<path d="M16.8826 20.9671C17.0635 20.947 17.2343 20.8743 17.3735 20.7581C17.4715 20.6247 17.523 20.4634 17.5202 20.2984C17.5202 20.2984 17.5001 18.8956 18.1703 18.6838C18.8405 18.472 19.6785 20.041 20.5779 20.6404C20.9179 20.902 21.3443 21.0284 21.7736 20.9946L24.1783 20.9623C24.1783 20.9623 25.4353 20.8873 24.8399 19.9261C24.3643 19.1609 23.7598 18.4821 23.0526 17.9192C21.5444 16.5591 21.7467 16.7795 23.5627 14.4259C24.6683 12.9927 25.1103 12.1179 24.9722 11.7437C24.8408 11.3857 24.0278 11.4806 24.0278 11.4806L21.321 11.4987C21.2009 11.4847 21.0794 11.5055 20.971 11.5585C20.8681 11.6319 20.7856 11.7299 20.7313 11.8434C20.4511 12.5502 20.1175 13.2351 19.7332 13.8921C18.5279 15.881 18.0456 15.9864 17.8491 15.8677C17.3908 15.5828 17.5049 14.7099 17.5049 14.0935C17.5049 12.1645 17.8059 11.361 16.919 11.1492C16.5054 11.051 16.0803 11.0088 15.6553 11.0238C14.8991 10.9563 14.1369 11.0327 13.4097 11.2489C13.1019 11.3951 12.8641 11.7238 13.0089 11.7409C13.3152 11.767 13.6003 11.9063 13.8076 12.1312C13.9947 12.5003 14.0866 12.9095 14.0751 13.3223C14.0751 13.3223 14.2343 15.5922 13.7031 15.8743C13.3387 16.0643 12.8402 15.673 11.7634 13.8674C11.3992 13.2402 11.0767 12.5901 10.7979 11.9213C10.7477 11.8072 10.6707 11.7066 10.5735 11.6278C10.4475 11.5467 10.3063 11.4914 10.1583 11.4654L7.58674 11.4816C7.58674 11.4816 7.20033 11.492 7.05842 11.6554C6.93282 11.7998 7.04884 12.1008 7.04884 12.1008C7.04884 12.1008 9.06237 16.6817 11.3425 18.9906C11.9139 19.6009 12.6038 20.0907 13.3709 20.4305C14.1381 20.7703 14.9666 20.9531 15.8068 20.968L16.8826 20.9671Z" fill="#ADADAD"/>
</svg>
