<svg width="232" height="53" viewBox="0 0 232 53" fill="none" xmlns="http://www.w3.org/2000/svg">
<rect width="232" height="53" fill="white"/>
<path d="M45.1317 17.3445C44.4982 16.6867 44.07 16.0218 43.4372 16.6797L28.8857 31.7939L22.1824 24.8324C21.549 24.1747 21.0738 24.4908 20.441 25.1484C19.8075 25.806 19.256 26.556 19.8892 27.2134L27.7392 35.3661C28.0434 35.682 28.4555 35.6295 28.8857 35.6295C29.3157 35.6295 29.7284 35.682 30.0326 35.3661L45.7306 19.0608C46.3634 18.4034 45.7649 18.0021 45.1317 17.3445Z" fill="#EAD40F"/>
<path d="M41.9112 28.493C41.0157 28.493 40.6076 28.2252 40.6076 29.1554V41.6321H17.243V17.3679H35.7431C36.6388 17.3679 36.5437 17.1599 36.5437 16.2297C36.5437 15.2997 36.6388 14 35.7431 14H15.6215C14.726 14 14 14.7537 14 15.6839V43.3161C14 44.2463 14.726 45 15.6215 45H42.2291C43.1248 45 43.8506 44.2463 43.8506 43.3161V29.1554C43.8506 28.2254 42.8069 28.493 41.9112 28.493Z" fill="#464646"/>
<path d="M51.28 38H48.328V21.2H51.304L57.04 29.048L62.512 21.2H65.296V38H62.368V25.856L57.064 33.32H56.632L51.28 25.928V38ZM70.0088 29.984L69.3128 27.968C70.4808 27.28 71.7528 26.936 73.1288 26.936C74.6328 26.936 75.7288 27.304 76.4168 28.04C77.1048 28.776 77.4488 29.904 77.4488 31.424V38H75.0488V36.752C74.4088 37.68 73.3448 38.144 71.8568 38.144C70.8328 38.144 70.0088 37.848 69.3848 37.256C68.7768 36.648 68.4728 35.84 68.4728 34.832C68.4728 33.712 68.8328 32.848 69.5528 32.24C70.2728 31.632 71.2248 31.328 72.4088 31.328C73.3848 31.328 74.2008 31.56 74.8568 32.024C74.8888 31.064 74.7448 30.36 74.4248 29.912C74.1208 29.464 73.5928 29.24 72.8408 29.24C72.0088 29.24 71.0648 29.488 70.0088 29.984ZM72.7688 35.816C73.6968 35.816 74.3928 35.488 74.8568 34.832V33.728C74.4088 33.376 73.7768 33.2 72.9608 33.2C72.4488 33.2 72.0328 33.32 71.7128 33.56C71.3928 33.8 71.2328 34.128 71.2328 34.544C71.2328 34.928 71.3768 35.24 71.6648 35.48C71.9528 35.704 72.3208 35.816 72.7688 35.816ZM83.0382 42.8H80.2782V27.2H83.0382V28.232C83.3902 27.848 83.8702 27.536 84.4782 27.296C85.0862 27.056 85.7182 26.936 86.3742 26.936C87.8622 26.936 89.0462 27.448 89.9262 28.472C90.8222 29.512 91.2702 30.832 91.2702 32.432C91.2702 34.112 90.7422 35.504 89.6862 36.608C88.6302 37.712 87.2542 38.264 85.5582 38.264C84.4702 38.264 83.6302 38.088 83.0382 37.736V42.8ZM85.5102 29.528C84.5502 29.528 83.7262 29.92 83.0382 30.704V35.072C83.6942 35.488 84.4542 35.696 85.3182 35.696C86.2302 35.696 86.9582 35.4 87.5022 34.808C88.0622 34.216 88.3422 33.448 88.3422 32.504C88.3422 31.608 88.0862 30.888 87.5742 30.344C87.0782 29.8 86.3902 29.528 85.5102 29.528ZM100.405 27.2H103.885L99.733 32.336L104.389 38H100.789L96.517 32.552L100.405 27.2ZM96.421 38H93.661V27.2H96.421V38ZM113.813 31.16L108.773 38H106.013V27.2H108.773V34.04L113.813 27.2H116.573V38H113.813V31.16ZM122.413 42.8H119.653V27.2H122.413V28.232C122.765 27.848 123.245 27.536 123.853 27.296C124.461 27.056 125.093 26.936 125.749 26.936C127.237 26.936 128.421 27.448 129.301 28.472C130.197 29.512 130.645 30.832 130.645 32.432C130.645 34.112 130.117 35.504 129.061 36.608C128.005 37.712 126.629 38.264 124.933 38.264C123.845 38.264 123.005 38.088 122.413 37.736V42.8ZM124.885 29.528C123.925 29.528 123.101 29.92 122.413 30.704V35.072C123.069 35.488 123.829 35.696 124.693 35.696C125.605 35.696 126.333 35.4 126.877 34.808C127.437 34.216 127.717 33.448 127.717 32.504C127.717 31.608 127.461 30.888 126.949 30.344C126.453 29.8 125.765 29.528 124.885 29.528ZM133.972 36.68C132.9 35.608 132.364 34.248 132.364 32.6C132.364 30.952 132.9 29.6 133.972 28.544C135.044 27.472 136.468 26.936 138.244 26.936C140.004 26.936 141.42 27.472 142.492 28.544C143.58 29.6 144.124 30.952 144.124 32.6C144.124 34.232 143.58 35.592 142.492 36.68C141.404 37.736 139.988 38.264 138.244 38.264C136.468 38.264 135.044 37.736 133.972 36.68ZM136.156 30.392C135.596 30.968 135.316 31.704 135.316 32.6C135.316 33.496 135.588 34.24 136.132 34.832C136.692 35.408 137.396 35.696 138.244 35.696C139.108 35.696 139.812 35.408 140.356 34.832C140.916 34.256 141.196 33.512 141.196 32.6C141.196 31.704 140.916 30.968 140.356 30.392C139.796 29.816 139.092 29.528 138.244 29.528C137.412 29.528 136.716 29.816 136.156 30.392ZM146.513 38V27.2C146.657 27.2 147.265 27.184 148.337 27.152C149.425 27.104 150.233 27.08 150.761 27.08C154.025 27.08 155.657 28.024 155.657 29.912C155.657 30.52 155.465 31.056 155.081 31.52C154.697 31.968 154.217 32.232 153.641 32.312V32.36C155.177 32.728 155.945 33.56 155.945 34.856C155.945 37.032 154.233 38.12 150.809 38.12C150.313 38.12 149.553 38.096 148.529 38.048C148.273 38.048 147.977 38.04 147.641 38.024C147.321 38.024 147.073 38.016 146.897 38C146.737 38 146.609 38 146.513 38ZM151.001 33.416H149.273V35.816C150.233 35.88 150.841 35.912 151.097 35.912C151.705 35.912 152.177 35.8 152.513 35.576C152.865 35.352 153.041 35.048 153.041 34.664C153.041 33.832 152.361 33.416 151.001 33.416ZM151.001 29.312C150.361 29.312 149.785 29.328 149.273 29.36V31.736H151.073C151.569 31.736 151.969 31.624 152.273 31.4C152.577 31.176 152.729 30.872 152.729 30.488C152.729 29.704 152.153 29.312 151.001 29.312ZM165.303 27.2H168.783L164.631 32.336L169.287 38H165.687L161.415 32.552L165.303 27.2ZM161.319 38H158.559V27.2H161.319V38ZM171.751 29.984L171.055 27.968C172.223 27.28 173.495 26.936 174.871 26.936C176.375 26.936 177.471 27.304 178.159 28.04C178.847 28.776 179.191 29.904 179.191 31.424V38H176.791V36.752C176.151 37.68 175.087 38.144 173.599 38.144C172.575 38.144 171.751 37.848 171.127 37.256C170.519 36.648 170.215 35.84 170.215 34.832C170.215 33.712 170.575 32.848 171.295 32.24C172.015 31.632 172.967 31.328 174.151 31.328C175.127 31.328 175.943 31.56 176.599 32.024C176.631 31.064 176.487 30.36 176.167 29.912C175.863 29.464 175.335 29.24 174.583 29.24C173.751 29.24 172.807 29.488 171.751 29.984ZM174.511 35.816C175.439 35.816 176.135 35.488 176.599 34.832V33.728C176.151 33.376 175.519 33.2 174.703 33.2C174.191 33.2 173.775 33.32 173.455 33.56C173.135 33.8 172.975 34.128 172.975 34.544C172.975 34.928 173.119 35.24 173.407 35.48C173.695 35.704 174.063 35.816 174.511 35.816ZM181.564 36.2C181.564 35.736 181.74 35.328 182.092 34.976C182.46 34.608 182.924 34.424 183.484 34.424C183.964 34.424 184.372 34.608 184.708 34.976C185.06 35.328 185.236 35.736 185.236 36.2C185.236 36.728 185.06 37.184 184.708 37.568C184.372 37.936 183.964 38.12 183.484 38.12C182.924 38.12 182.46 37.936 182.092 37.568C181.74 37.184 181.564 36.728 181.564 36.2Z" fill="#464646"/>
<path d="M194.528 27.2H198.008L193.952 32.144L198.488 38H194.936L190.664 32.36L194.528 27.2ZM190.616 38H187.856V21.2H190.616V38ZM198.112 39.464C198.112 38.616 198.424 37.912 199.048 37.352C199.672 36.776 200.528 36.368 201.616 36.128C201.488 35.904 201.424 35.656 201.424 35.384C201.424 35.08 201.504 34.824 201.664 34.616C200.864 34.296 200.232 33.816 199.768 33.176C199.32 32.52 199.096 31.792 199.096 30.992C199.096 29.888 199.52 28.936 200.368 28.136C201.216 27.336 202.328 26.936 203.704 26.936C204.744 26.936 205.664 27.192 206.464 27.704L209.728 26.984L209.824 29.192L208.024 29.6C208.2 30.08 208.288 30.544 208.288 30.992C208.288 32.08 207.864 33.024 207.016 33.824C206.184 34.592 205.08 34.976 203.704 34.976H203.512C203.48 35.104 203.464 35.24 203.464 35.384C203.464 35.592 203.512 35.776 203.608 35.936H203.728C205.408 35.936 206.76 36.232 207.784 36.824C208.824 37.432 209.344 38.312 209.344 39.464C209.344 40.616 208.824 41.496 207.784 42.104C206.76 42.696 205.408 42.992 203.728 42.992C202 42.992 200.632 42.688 199.624 42.08C198.616 41.488 198.112 40.616 198.112 39.464ZM200.68 39.464C200.68 39.88 200.944 40.2 201.472 40.424C202.016 40.664 202.768 40.784 203.728 40.784C205.744 40.784 206.752 40.344 206.752 39.464C206.752 39.064 206.488 38.744 205.96 38.504C205.432 38.264 204.688 38.144 203.728 38.144C202.784 38.144 202.04 38.264 201.496 38.504C200.952 38.744 200.68 39.064 200.68 39.464ZM203.704 32.744C204.296 32.744 204.776 32.584 205.144 32.264C205.528 31.944 205.72 31.52 205.72 30.992C205.72 30.448 205.536 30.008 205.168 29.672C204.8 29.336 204.312 29.168 203.704 29.168C203.096 29.168 202.608 29.344 202.24 29.696C201.872 30.032 201.688 30.464 201.688 30.992C201.688 31.504 201.872 31.928 202.24 32.264C202.608 32.584 203.096 32.744 203.704 32.744Z" fill="#EAD40F"/>
</svg>
