<svg width="196" height="31" viewBox="0 0 196 31" fill="none" xmlns="http://www.w3.org/2000/svg">
<rect width="196" height="31" fill="#63666A"/>
<path d="M31.1317 3.34452C30.4982 2.68666 30.07 2.02183 29.4372 2.67968L14.8857 17.7939L8.18244 10.8324C7.54898 10.1747 7.07382 10.4908 6.44101 11.1484C5.80755 11.806 5.25597 12.556 5.88922 13.2134L13.7392 21.3661C14.0434 21.682 14.4555 21.6295 14.8857 21.6295C15.3157 21.6295 15.7284 21.682 16.0326 21.3661L31.7306 5.06076C32.3634 4.40335 31.7649 4.00215 31.1317 3.34452Z" fill="#EAD40F"/>
<path d="M27.9112 14.493C27.0157 14.493 26.6076 14.2252 26.6076 15.1554V27.6321H3.24299V3.36786H21.7431C22.6388 3.36786 22.5437 3.15989 22.5437 2.22969C22.5437 1.29971 22.6388 0 21.7431 0H1.62149C0.725996 0 0 0.753726 0 1.68393V29.3161C0 30.2463 0.725996 31 1.62149 31H28.2291C29.1248 31 29.8506 30.2463 29.8506 29.3161V15.1554C29.8506 14.2254 28.8069 14.493 27.9112 14.493Z" fill="#BEBEBE"/>
<path d="M37.28 24H34.328V7.2H37.304L43.04 15.048L48.512 7.2H51.296V24H48.368V11.856L43.064 19.32H42.632L37.28 11.928V24ZM56.0088 15.984L55.3128 13.968C56.4808 13.28 57.7528 12.936 59.1288 12.936C60.6328 12.936 61.7288 13.304 62.4168 14.04C63.1048 14.776 63.4488 15.904 63.4488 17.424V24H61.0488V22.752C60.4088 23.68 59.3448 24.144 57.8568 24.144C56.8328 24.144 56.0088 23.848 55.3848 23.256C54.7768 22.648 54.4728 21.84 54.4728 20.832C54.4728 19.712 54.8328 18.848 55.5528 18.24C56.2728 17.632 57.2248 17.328 58.4088 17.328C59.3848 17.328 60.2008 17.56 60.8568 18.024C60.8888 17.064 60.7448 16.36 60.4248 15.912C60.1208 15.464 59.5928 15.24 58.8408 15.24C58.0088 15.24 57.0648 15.488 56.0088 15.984ZM58.7688 21.816C59.6968 21.816 60.3928 21.488 60.8568 20.832V19.728C60.4088 19.376 59.7768 19.2 58.9608 19.2C58.4488 19.2 58.0328 19.32 57.7128 19.56C57.3928 19.8 57.2328 20.128 57.2328 20.544C57.2328 20.928 57.3768 21.24 57.6648 21.48C57.9528 21.704 58.3208 21.816 58.7688 21.816ZM69.0382 28.8H66.2782V13.2H69.0382V14.232C69.3902 13.848 69.8702 13.536 70.4782 13.296C71.0862 13.056 71.7182 12.936 72.3742 12.936C73.8622 12.936 75.0462 13.448 75.9262 14.472C76.8222 15.512 77.2702 16.832 77.2702 18.432C77.2702 20.112 76.7422 21.504 75.6862 22.608C74.6302 23.712 73.2542 24.264 71.5582 24.264C70.4702 24.264 69.6302 24.088 69.0382 23.736V28.8ZM71.5102 15.528C70.5502 15.528 69.7262 15.92 69.0382 16.704V21.072C69.6942 21.488 70.4542 21.696 71.3182 21.696C72.2302 21.696 72.9582 21.4 73.5022 20.808C74.0622 20.216 74.3422 19.448 74.3422 18.504C74.3422 17.608 74.0862 16.888 73.5742 16.344C73.0782 15.8 72.3902 15.528 71.5102 15.528ZM86.405 13.2H89.885L85.733 18.336L90.389 24H86.789L82.517 18.552L86.405 13.2ZM82.421 24H79.661V13.2H82.421V24ZM99.8126 17.16L94.7726 24H92.0126V13.2H94.7726V20.04L99.8126 13.2H102.573V24H99.8126V17.16ZM108.413 28.8H105.653V13.2H108.413V14.232C108.765 13.848 109.245 13.536 109.853 13.296C110.461 13.056 111.093 12.936 111.749 12.936C113.237 12.936 114.421 13.448 115.301 14.472C116.197 15.512 116.645 16.832 116.645 18.432C116.645 20.112 116.117 21.504 115.061 22.608C114.005 23.712 112.629 24.264 110.933 24.264C109.845 24.264 109.005 24.088 108.413 23.736V28.8ZM110.885 15.528C109.925 15.528 109.101 15.92 108.413 16.704V21.072C109.069 21.488 109.829 21.696 110.693 21.696C111.605 21.696 112.333 21.4 112.877 20.808C113.437 20.216 113.717 19.448 113.717 18.504C113.717 17.608 113.461 16.888 112.949 16.344C112.453 15.8 111.765 15.528 110.885 15.528ZM119.972 22.68C118.9 21.608 118.364 20.248 118.364 18.6C118.364 16.952 118.9 15.6 119.972 14.544C121.044 13.472 122.468 12.936 124.244 12.936C126.004 12.936 127.42 13.472 128.492 14.544C129.58 15.6 130.124 16.952 130.124 18.6C130.124 20.232 129.58 21.592 128.492 22.68C127.404 23.736 125.988 24.264 124.244 24.264C122.468 24.264 121.044 23.736 119.972 22.68ZM122.156 16.392C121.596 16.968 121.316 17.704 121.316 18.6C121.316 19.496 121.588 20.24 122.132 20.832C122.692 21.408 123.396 21.696 124.244 21.696C125.108 21.696 125.812 21.408 126.356 20.832C126.916 20.256 127.196 19.512 127.196 18.6C127.196 17.704 126.916 16.968 126.356 16.392C125.796 15.816 125.092 15.528 124.244 15.528C123.412 15.528 122.716 15.816 122.156 16.392ZM132.513 24V13.2C132.657 13.2 133.265 13.184 134.337 13.152C135.425 13.104 136.233 13.08 136.761 13.08C140.025 13.08 141.657 14.024 141.657 15.912C141.657 16.52 141.465 17.056 141.081 17.52C140.697 17.968 140.217 18.232 139.641 18.312V18.36C141.177 18.728 141.945 19.56 141.945 20.856C141.945 23.032 140.233 24.12 136.809 24.12C136.313 24.12 135.553 24.096 134.529 24.048C134.273 24.048 133.977 24.04 133.641 24.024C133.321 24.024 133.073 24.016 132.897 24C132.737 24 132.609 24 132.513 24ZM137.001 19.416H135.273V21.816C136.233 21.88 136.841 21.912 137.097 21.912C137.705 21.912 138.177 21.8 138.513 21.576C138.865 21.352 139.041 21.048 139.041 20.664C139.041 19.832 138.361 19.416 137.001 19.416ZM137.001 15.312C136.361 15.312 135.785 15.328 135.273 15.36V17.736H137.073C137.569 17.736 137.969 17.624 138.273 17.4C138.577 17.176 138.729 16.872 138.729 16.488C138.729 15.704 138.153 15.312 137.001 15.312ZM151.303 13.2H154.783L150.631 18.336L155.287 24H151.687L147.415 18.552L151.303 13.2ZM147.319 24H144.559V13.2H147.319V24ZM157.751 15.984L157.055 13.968C158.223 13.28 159.495 12.936 160.871 12.936C162.375 12.936 163.471 13.304 164.159 14.04C164.847 14.776 165.191 15.904 165.191 17.424V24H162.791V22.752C162.151 23.68 161.087 24.144 159.599 24.144C158.575 24.144 157.751 23.848 157.127 23.256C156.519 22.648 156.215 21.84 156.215 20.832C156.215 19.712 156.575 18.848 157.295 18.24C158.015 17.632 158.967 17.328 160.151 17.328C161.127 17.328 161.943 17.56 162.599 18.024C162.631 17.064 162.487 16.36 162.167 15.912C161.863 15.464 161.335 15.24 160.583 15.24C159.751 15.24 158.807 15.488 157.751 15.984ZM160.511 21.816C161.439 21.816 162.135 21.488 162.599 20.832V19.728C162.151 19.376 161.519 19.2 160.703 19.2C160.191 19.2 159.775 19.32 159.455 19.56C159.135 19.8 158.975 20.128 158.975 20.544C158.975 20.928 159.119 21.24 159.407 21.48C159.695 21.704 160.063 21.816 160.511 21.816ZM167.564 22.2C167.564 21.736 167.74 21.328 168.092 20.976C168.46 20.608 168.924 20.424 169.484 20.424C169.964 20.424 170.372 20.608 170.708 20.976C171.06 21.328 171.236 21.736 171.236 22.2C171.236 22.728 171.06 23.184 170.708 23.568C170.372 23.936 169.964 24.12 169.484 24.12C168.924 24.12 168.46 23.936 168.092 23.568C167.74 23.184 167.564 22.728 167.564 22.2Z" fill="#BEBEBE"/>
<path d="M180.528 13.2H184.008L179.952 18.144L184.488 24H180.936L176.664 18.36L180.528 13.2ZM176.616 24H173.856V7.2H176.616V24ZM184.112 25.464C184.112 24.616 184.424 23.912 185.048 23.352C185.672 22.776 186.528 22.368 187.616 22.128C187.488 21.904 187.424 21.656 187.424 21.384C187.424 21.08 187.504 20.824 187.664 20.616C186.864 20.296 186.232 19.816 185.768 19.176C185.32 18.52 185.096 17.792 185.096 16.992C185.096 15.888 185.52 14.936 186.368 14.136C187.216 13.336 188.328 12.936 189.704 12.936C190.744 12.936 191.664 13.192 192.464 13.704L195.728 12.984L195.824 15.192L194.024 15.6C194.2 16.08 194.288 16.544 194.288 16.992C194.288 18.08 193.864 19.024 193.016 19.824C192.184 20.592 191.08 20.976 189.704 20.976H189.512C189.48 21.104 189.464 21.24 189.464 21.384C189.464 21.592 189.512 21.776 189.608 21.936H189.728C191.408 21.936 192.76 22.232 193.784 22.824C194.824 23.432 195.344 24.312 195.344 25.464C195.344 26.616 194.824 27.496 193.784 28.104C192.76 28.696 191.408 28.992 189.728 28.992C188 28.992 186.632 28.688 185.624 28.08C184.616 27.488 184.112 26.616 184.112 25.464ZM186.68 25.464C186.68 25.88 186.944 26.2 187.472 26.424C188.016 26.664 188.768 26.784 189.728 26.784C191.744 26.784 192.752 26.344 192.752 25.464C192.752 25.064 192.488 24.744 191.96 24.504C191.432 24.264 190.688 24.144 189.728 24.144C188.784 24.144 188.04 24.264 187.496 24.504C186.952 24.744 186.68 25.064 186.68 25.464ZM189.704 18.744C190.296 18.744 190.776 18.584 191.144 18.264C191.528 17.944 191.72 17.52 191.72 16.992C191.72 16.448 191.536 16.008 191.168 15.672C190.8 15.336 190.312 15.168 189.704 15.168C189.096 15.168 188.608 15.344 188.24 15.696C187.872 16.032 187.688 16.464 187.688 16.992C187.688 17.504 187.872 17.928 188.24 18.264C188.608 18.584 189.096 18.744 189.704 18.744Z" fill="#EAD40F"/>
</svg>
